# xmcd
#
# Track frame offsets:
#        182
#        7792
#        12020
#        17880
#        27347
#        33522
#        35795
#        42802
#        50220
#        56232
#        62372
#        77345
#        87947
#        111182
#
# Disc length: 1682 seconds
#
# Revision: 4
# Processed by: cddbd v1.5.1PL2 Copyright (c) Steve Scherf et al.
# Submitted via: ExactAudioCopy v0.95b3
#
DISCID=a706900e
DTITLE=Beastie Boys - Some Old Bullshit
DYEAR=1994
DGENRE=Punk
TTITLE0=Egg Raid On Mojo
TTITLE1=Beastie Boys
TTITLE2=Transit Cop
TTITLE3=Jimi
TTITLE4=Holy Snappers
TTITLE5=Riot Fight
TTITLE6=Ode To...
TTITLE7=Michelle's Farm
TTITLE8=Egg Raid On Mojo
TTITLE9=Transit Cop
TTITLE10=Cooky Puss
TTITLE11=Bonus Batter
TTITLE12=Beastie Revolution
TTITLE13=Cooky Puss (Censored Version)
EXTD=YEAR: 1982
EXTT0=
EXTT1=
EXTT2=
EXTT3=
EXTT4=
EXTT5=
EXTT6=
EXTT7=
EXTT8=
EXTT9=
EXTT10=
EXTT11=
EXTT12=
EXTT13=
PLAYORDER=
